<mxfile host="app.diagrams.net" agent="Mozilla/5.0 (Windows NT 10.0; Win64; x64) AppleWebKit/537.36 (KHTML, like Gecko) Chrome/139.0.0.0 Safari/537.36" version="28.1.2" pages="2">
  <diagram name="marcenaria_N_N" id="1Eymzq3OlWK8u_vFHMUv">
    <mxGraphModel dx="1042" dy="562" grid="1" gridSize="10" guides="1" tooltips="1" connect="1" arrows="1" fold="1" page="1" pageScale="1" pageWidth="827" pageHeight="1169" math="0" shadow="0">
      <root>
        <mxCell id="0" />
        <mxCell id="1" parent="0" />
        <mxCell id="aE8sl5S4CttXaqT_SEnv-8" value="" style="edgeStyle=orthogonalEdgeStyle;rounded=0;orthogonalLoop=1;jettySize=auto;html=1;" edge="1" parent="1" source="aE8sl5S4CttXaqT_SEnv-1" target="aE8sl5S4CttXaqT_SEnv-7">
          <mxGeometry relative="1" as="geometry" />
        </mxCell>
        <mxCell id="aE8sl5S4CttXaqT_SEnv-1" value="Fornecedor" style="rounded=0;whiteSpace=wrap;html=1;" vertex="1" parent="1">
          <mxGeometry x="80" y="100" width="120" height="60" as="geometry" />
        </mxCell>
        <mxCell id="aE8sl5S4CttXaqT_SEnv-19" value="" style="edgeStyle=orthogonalEdgeStyle;rounded=0;orthogonalLoop=1;jettySize=auto;html=1;" edge="1" parent="1" source="aE8sl5S4CttXaqT_SEnv-2" target="aE8sl5S4CttXaqT_SEnv-17">
          <mxGeometry relative="1" as="geometry" />
        </mxCell>
        <mxCell id="aE8sl5S4CttXaqT_SEnv-2" value="Pedido" style="rounded=0;whiteSpace=wrap;html=1;" vertex="1" parent="1">
          <mxGeometry x="480" y="100" width="120" height="60" as="geometry" />
        </mxCell>
        <mxCell id="aE8sl5S4CttXaqT_SEnv-14" value="" style="edgeStyle=orthogonalEdgeStyle;rounded=0;orthogonalLoop=1;jettySize=auto;html=1;" edge="1" parent="1" source="aE8sl5S4CttXaqT_SEnv-3" target="aE8sl5S4CttXaqT_SEnv-12">
          <mxGeometry relative="1" as="geometry" />
        </mxCell>
        <mxCell id="aE8sl5S4CttXaqT_SEnv-18" value="" style="edgeStyle=orthogonalEdgeStyle;rounded=0;orthogonalLoop=1;jettySize=auto;html=1;" edge="1" parent="1" source="aE8sl5S4CttXaqT_SEnv-3" target="aE8sl5S4CttXaqT_SEnv-17">
          <mxGeometry relative="1" as="geometry" />
        </mxCell>
        <mxCell id="aE8sl5S4CttXaqT_SEnv-3" value="Produto" style="rounded=0;whiteSpace=wrap;html=1;" vertex="1" parent="1">
          <mxGeometry x="480" y="350" width="120" height="60" as="geometry" />
        </mxCell>
        <mxCell id="aE8sl5S4CttXaqT_SEnv-9" value="" style="edgeStyle=orthogonalEdgeStyle;rounded=0;orthogonalLoop=1;jettySize=auto;html=1;" edge="1" parent="1" source="aE8sl5S4CttXaqT_SEnv-4" target="aE8sl5S4CttXaqT_SEnv-7">
          <mxGeometry relative="1" as="geometry" />
        </mxCell>
        <mxCell id="aE8sl5S4CttXaqT_SEnv-13" value="" style="edgeStyle=orthogonalEdgeStyle;rounded=0;orthogonalLoop=1;jettySize=auto;html=1;" edge="1" parent="1" source="aE8sl5S4CttXaqT_SEnv-4" target="aE8sl5S4CttXaqT_SEnv-12">
          <mxGeometry relative="1" as="geometry" />
        </mxCell>
        <mxCell id="aE8sl5S4CttXaqT_SEnv-4" value="MateriaPrima" style="rounded=0;whiteSpace=wrap;html=1;" vertex="1" parent="1">
          <mxGeometry x="80" y="350" width="120" height="60" as="geometry" />
        </mxCell>
        <mxCell id="aE8sl5S4CttXaqT_SEnv-7" value="Relationship" style="shape=rhombus;double=1;perimeter=rhombusPerimeter;whiteSpace=wrap;html=1;align=center;" vertex="1" parent="1">
          <mxGeometry x="80" y="220" width="120" height="60" as="geometry" />
        </mxCell>
        <mxCell id="aE8sl5S4CttXaqT_SEnv-10" value="N" style="text;html=1;align=center;verticalAlign=middle;resizable=0;points=[];autosize=1;strokeColor=none;fillColor=none;" vertex="1" parent="1">
          <mxGeometry x="170" y="320" width="30" height="30" as="geometry" />
        </mxCell>
        <mxCell id="aE8sl5S4CttXaqT_SEnv-11" value="1/N" style="text;html=1;align=center;verticalAlign=middle;resizable=0;points=[];autosize=1;strokeColor=none;fillColor=none;" vertex="1" parent="1">
          <mxGeometry x="165" y="160" width="40" height="30" as="geometry" />
        </mxCell>
        <mxCell id="aE8sl5S4CttXaqT_SEnv-12" value="Relationship" style="shape=rhombus;double=1;perimeter=rhombusPerimeter;whiteSpace=wrap;html=1;align=center;" vertex="1" parent="1">
          <mxGeometry x="270" y="350" width="120" height="60" as="geometry" />
        </mxCell>
        <mxCell id="aE8sl5S4CttXaqT_SEnv-15" value="N" style="text;html=1;align=center;verticalAlign=middle;resizable=0;points=[];autosize=1;strokeColor=none;fillColor=none;" vertex="1" parent="1">
          <mxGeometry x="455" y="338" width="30" height="30" as="geometry" />
        </mxCell>
        <mxCell id="aE8sl5S4CttXaqT_SEnv-16" value="N" style="text;html=1;align=center;verticalAlign=middle;resizable=0;points=[];autosize=1;strokeColor=none;fillColor=none;" vertex="1" parent="1">
          <mxGeometry x="195" y="338" width="30" height="30" as="geometry" />
        </mxCell>
        <mxCell id="aE8sl5S4CttXaqT_SEnv-17" value="Relationship" style="shape=rhombus;double=1;perimeter=rhombusPerimeter;whiteSpace=wrap;html=1;align=center;" vertex="1" parent="1">
          <mxGeometry x="480" y="210" width="120" height="60" as="geometry" />
        </mxCell>
        <mxCell id="aE8sl5S4CttXaqT_SEnv-20" value="1/N" style="text;html=1;align=center;verticalAlign=middle;resizable=0;points=[];autosize=1;strokeColor=none;fillColor=none;" vertex="1" parent="1">
          <mxGeometry x="545" y="320" width="40" height="30" as="geometry" />
        </mxCell>
        <mxCell id="aE8sl5S4CttXaqT_SEnv-21" value="N" style="text;html=1;align=center;verticalAlign=middle;resizable=0;points=[];autosize=1;strokeColor=none;fillColor=none;" vertex="1" parent="1">
          <mxGeometry x="555" y="160" width="30" height="30" as="geometry" />
        </mxCell>
      </root>
    </mxGraphModel>
  </diagram>
  <diagram name="CÃ³pia do marcenaria_N_N" id="HlVVEMp6u1PbEwnpT3PK">
    <mxGraphModel dx="1042" dy="562" grid="1" gridSize="10" guides="1" tooltips="1" connect="1" arrows="1" fold="1" page="1" pageScale="1" pageWidth="827" pageHeight="1169" math="0" shadow="0">
      <root>
        <mxCell id="fek98vuOFdIjWVLKrcih-0" />
        <mxCell id="fek98vuOFdIjWVLKrcih-1" parent="fek98vuOFdIjWVLKrcih-0" />
        <mxCell id="fek98vuOFdIjWVLKrcih-2" value="" style="edgeStyle=orthogonalEdgeStyle;rounded=0;orthogonalLoop=1;jettySize=auto;html=1;" edge="1" parent="fek98vuOFdIjWVLKrcih-1" source="fek98vuOFdIjWVLKrcih-3" target="fek98vuOFdIjWVLKrcih-12">
          <mxGeometry relative="1" as="geometry" />
        </mxCell>
        <mxCell id="fek98vuOFdIjWVLKrcih-3" value="Fornecedor" style="rounded=0;whiteSpace=wrap;html=1;" vertex="1" parent="fek98vuOFdIjWVLKrcih-1">
          <mxGeometry x="80" y="100" width="120" height="60" as="geometry" />
        </mxCell>
        <mxCell id="fek98vuOFdIjWVLKrcih-4" value="" style="edgeStyle=orthogonalEdgeStyle;rounded=0;orthogonalLoop=1;jettySize=auto;html=1;" edge="1" parent="fek98vuOFdIjWVLKrcih-1" source="fek98vuOFdIjWVLKrcih-5" target="fek98vuOFdIjWVLKrcih-18">
          <mxGeometry relative="1" as="geometry" />
        </mxCell>
        <mxCell id="fek98vuOFdIjWVLKrcih-5" value="Pedido" style="rounded=0;whiteSpace=wrap;html=1;" vertex="1" parent="fek98vuOFdIjWVLKrcih-1">
          <mxGeometry x="585" y="50" width="120" height="60" as="geometry" />
        </mxCell>
        <mxCell id="fek98vuOFdIjWVLKrcih-7" value="" style="edgeStyle=orthogonalEdgeStyle;rounded=0;orthogonalLoop=1;jettySize=auto;html=1;" edge="1" parent="fek98vuOFdIjWVLKrcih-1" source="fek98vuOFdIjWVLKrcih-8" target="fek98vuOFdIjWVLKrcih-18">
          <mxGeometry relative="1" as="geometry" />
        </mxCell>
        <mxCell id="Tgx9IRzzrnALF98RsSRV-2" value="" style="edgeStyle=orthogonalEdgeStyle;rounded=0;orthogonalLoop=1;jettySize=auto;html=1;" edge="1" parent="fek98vuOFdIjWVLKrcih-1" source="fek98vuOFdIjWVLKrcih-8" target="Tgx9IRzzrnALF98RsSRV-1">
          <mxGeometry relative="1" as="geometry" />
        </mxCell>
        <mxCell id="fek98vuOFdIjWVLKrcih-8" value="Produto" style="rounded=0;whiteSpace=wrap;html=1;" vertex="1" parent="fek98vuOFdIjWVLKrcih-1">
          <mxGeometry x="585" y="420" width="120" height="60" as="geometry" />
        </mxCell>
        <mxCell id="fek98vuOFdIjWVLKrcih-9" value="" style="edgeStyle=orthogonalEdgeStyle;rounded=0;orthogonalLoop=1;jettySize=auto;html=1;" edge="1" parent="fek98vuOFdIjWVLKrcih-1" source="fek98vuOFdIjWVLKrcih-11" target="fek98vuOFdIjWVLKrcih-12">
          <mxGeometry relative="1" as="geometry" />
        </mxCell>
        <mxCell id="Tgx9IRzzrnALF98RsSRV-3" style="edgeStyle=orthogonalEdgeStyle;rounded=0;orthogonalLoop=1;jettySize=auto;html=1;entryX=0;entryY=0.5;entryDx=0;entryDy=0;" edge="1" parent="fek98vuOFdIjWVLKrcih-1" source="fek98vuOFdIjWVLKrcih-11" target="Tgx9IRzzrnALF98RsSRV-1">
          <mxGeometry relative="1" as="geometry" />
        </mxCell>
        <mxCell id="fek98vuOFdIjWVLKrcih-11" value="MateriaPrima" style="rounded=0;whiteSpace=wrap;html=1;" vertex="1" parent="fek98vuOFdIjWVLKrcih-1">
          <mxGeometry x="80" y="420" width="120" height="60" as="geometry" />
        </mxCell>
        <mxCell id="fek98vuOFdIjWVLKrcih-12" value="Relationship" style="shape=rhombus;double=1;perimeter=rhombusPerimeter;whiteSpace=wrap;html=1;align=center;" vertex="1" parent="fek98vuOFdIjWVLKrcih-1">
          <mxGeometry x="80" y="220" width="120" height="60" as="geometry" />
        </mxCell>
        <mxCell id="fek98vuOFdIjWVLKrcih-13" value="N" style="text;html=1;align=center;verticalAlign=middle;resizable=0;points=[];autosize=1;strokeColor=none;fillColor=none;" vertex="1" parent="fek98vuOFdIjWVLKrcih-1">
          <mxGeometry x="140" y="290" width="30" height="30" as="geometry" />
        </mxCell>
        <mxCell id="fek98vuOFdIjWVLKrcih-14" value="1/N" style="text;html=1;align=center;verticalAlign=middle;resizable=0;points=[];autosize=1;strokeColor=none;fillColor=none;" vertex="1" parent="fek98vuOFdIjWVLKrcih-1">
          <mxGeometry x="165" y="160" width="40" height="30" as="geometry" />
        </mxCell>
        <mxCell id="fek98vuOFdIjWVLKrcih-16" value="N" style="text;html=1;align=center;verticalAlign=middle;resizable=0;points=[];autosize=1;strokeColor=none;fillColor=none;" vertex="1" parent="fek98vuOFdIjWVLKrcih-1">
          <mxGeometry x="455" y="338" width="30" height="30" as="geometry" />
        </mxCell>
        <mxCell id="fek98vuOFdIjWVLKrcih-18" value="Relationship" style="shape=rhombus;double=1;perimeter=rhombusPerimeter;whiteSpace=wrap;html=1;align=center;" vertex="1" parent="fek98vuOFdIjWVLKrcih-1">
          <mxGeometry x="585" y="220" width="120" height="60" as="geometry" />
        </mxCell>
        <mxCell id="fek98vuOFdIjWVLKrcih-19" value="1/N" style="text;html=1;align=center;verticalAlign=middle;resizable=0;points=[];autosize=1;strokeColor=none;fillColor=none;" vertex="1" parent="fek98vuOFdIjWVLKrcih-1">
          <mxGeometry x="660" y="270" width="40" height="30" as="geometry" />
        </mxCell>
        <mxCell id="fek98vuOFdIjWVLKrcih-20" value="N" style="text;html=1;align=center;verticalAlign=middle;resizable=0;points=[];autosize=1;strokeColor=none;fillColor=none;" vertex="1" parent="fek98vuOFdIjWVLKrcih-1">
          <mxGeometry x="555" y="160" width="30" height="30" as="geometry" />
        </mxCell>
        <mxCell id="Tgx9IRzzrnALF98RsSRV-1" value="Receita" style="rounded=0;whiteSpace=wrap;html=1;" vertex="1" parent="fek98vuOFdIjWVLKrcih-1">
          <mxGeometry x="320" y="420" width="120" height="60" as="geometry" />
        </mxCell>
        <mxCell id="Tgx9IRzzrnALF98RsSRV-4" value="N" style="text;html=1;align=center;verticalAlign=middle;resizable=0;points=[];autosize=1;strokeColor=none;fillColor=none;" vertex="1" parent="fek98vuOFdIjWVLKrcih-1">
          <mxGeometry x="290" y="420" width="30" height="30" as="geometry" />
        </mxCell>
        <mxCell id="Tgx9IRzzrnALF98RsSRV-5" value="N" style="text;html=1;align=center;verticalAlign=middle;resizable=0;points=[];autosize=1;strokeColor=none;fillColor=none;" vertex="1" parent="fek98vuOFdIjWVLKrcih-1">
          <mxGeometry x="440" y="420" width="30" height="30" as="geometry" />
        </mxCell>
        <mxCell id="Tgx9IRzzrnALF98RsSRV-6" value="1" style="text;html=1;align=center;verticalAlign=middle;resizable=0;points=[];autosize=1;strokeColor=none;fillColor=none;" vertex="1" parent="fek98vuOFdIjWVLKrcih-1">
          <mxGeometry x="615" y="388" width="30" height="30" as="geometry" />
        </mxCell>
        <mxCell id="Tgx9IRzzrnALF98RsSRV-7" value="1" style="text;html=1;align=center;verticalAlign=middle;resizable=0;points=[];autosize=1;strokeColor=none;fillColor=none;" vertex="1" parent="fek98vuOFdIjWVLKrcih-1">
          <mxGeometry x="150" y="390" width="30" height="30" as="geometry" />
        </mxCell>
      </root>
    </mxGraphModel>
  </diagram>
</mxfile>
